<svg id="Layer_1" data-name="Layer 1" xmlns="http://www.w3.org/2000/svg" viewBox="0 0 23 23"><defs><style>.cls-1{fill:#011c52;}</style></defs><path class="cls-1" d="M9.32.85l.37,1A.16.16,0,0,0,9.78,2l.91.42a.18.18,0,0,1,0,.32l-.91.41a.22.22,0,0,0-.09.1l-.37,1a.14.14,0,0,1-.28,0l-.37-1a.22.22,0,0,0-.09-.1l-.92-.41a.18.18,0,0,1,0-.32L8.58,2a.16.16,0,0,0,.09-.09L9,.85A.15.15,0,0,1,9.32.85Z"/><path class="cls-1" d="M21.77,10.14l.28.77a.11.11,0,0,0,.06.07l.68.31a.13.13,0,0,1,0,.24l-.68.31a.09.09,0,0,0-.06.07l-.28.76a.11.11,0,0,1-.21,0l-.27-.76a.1.1,0,0,0-.07-.07l-.68-.31a.14.14,0,0,1,0-.24l.68-.31a.12.12,0,0,0,.07-.07l.27-.77a.11.11,0,0,1,.21,0Z"/><circle class="cls-1" cx="16.7" cy="4.02" r="0.35"/><circle class="cls-1" cx="21.32" cy="1.8" r="0.64"/><path class="cls-1" d="M15.46,14a13.9,13.9,0,0,0-2.7-3.66c-.37-.37-.75-.72-1.14-1l-.28-1,.72.24h0A2,2,0,0,0,14,8l.75-.76a1.94,1.94,0,0,0,.48-1.92l-.41-1.4a1.37,1.37,0,0,0-2.63.77l.3,1-.74-.2A1.94,1.94,0,0,0,9.83,6l-.75.75a2,2,0,0,0-.43.65c-1.31-.52-2-.28-2.39.06a1.46,1.46,0,0,0-.56.62h0L.25,20.64A1.66,1.66,0,0,0,1.77,23a1.68,1.68,0,0,0,.69-.15L15,17.43h0a1.44,1.44,0,0,0,.8-1.05.13.13,0,0,0,0-.06,3.15,3.15,0,0,0-.4-2.37Zm-1.31-.52a.44.44,0,0,1,.34.14.47.47,0,0,1,0,.67.48.48,0,0,1-.68,0,.48.48,0,0,1,0-.67A.47.47,0,0,1,14.15,13.43Zm-.78-9.59a.46.46,0,0,1,.59.31l.41,1.4a1,1,0,0,1-.25,1l-.34.34-.22-.69h0l-.51-1.81h0A.47.47,0,0,1,13.37,3.84ZM11.5,6.37h0l1.28.36.26.83a1.05,1.05,0,0,1-.7,0L11,7.18,10.8,6.4a1,1,0,0,1,.39-.08A1.06,1.06,0,0,1,11.5,6.37Zm-1.79,1L10.06,7l.22.71h0l.49,1.79h0a.5.5,0,0,1,0,.36.49.49,0,0,1-.28.23A.48.48,0,0,1,10,10a.41.41,0,0,1-.12-.2l-.41-1.4A1,1,0,0,1,9.71,7.37Zm-2.86.76A.62.62,0,0,1,7.31,8a3.16,3.16,0,0,1,1.22.31,1.53,1.53,0,0,0,.07.36L9,10.06a1.33,1.33,0,0,0,.35.58,1.36,1.36,0,0,0,1,.4,1.74,1.74,0,0,0,.39,0,1.41,1.41,0,0,0,.81-.65l.6.58a15.43,15.43,0,0,1,1.71,2,1.07,1.07,0,0,0-.4.25,1,1,0,0,0,1.38,1.49c.34.85.29,1.34.11,1.52s-.81.24-1.87-.26A13.08,13.08,0,0,1,9.64,13.4,12.61,12.61,0,0,1,7.11,10c-.51-1.07-.47-1.67-.26-1.87ZM2.1,22h0a.76.76,0,0,1-.87-.15h0A.78.78,0,0,1,1.06,21h0L6,9.63a5.32,5.32,0,0,0,.3.75A13.89,13.89,0,0,0,9,14a13.68,13.68,0,0,0,3.66,2.7,5.22,5.22,0,0,0,.89.35Z"/><path class="cls-1" d="M21.92,4.52l-1.4-.41a1.94,1.94,0,0,0-1.92.48l-.75.75a1.93,1.93,0,0,0-.48,1.93h0l.24.73-1.08-.3A1.37,1.37,0,0,0,15.18,10a1.31,1.31,0,0,0,.58.34l1.4.41a1.82,1.82,0,0,0,.56.09,1.89,1.89,0,0,0,1.36-.57l.76-.75a2,2,0,0,0,.48-1.92l-.21-.73,1,.29a1.39,1.39,0,0,0,1-.11,1.42,1.42,0,0,0,.66-.82,1.38,1.38,0,0,0-.93-1.7ZM19.1,6.57l.36,1.27h0a1,1,0,0,1,0,.7l-.77-.24L18.22,7a1.11,1.11,0,0,1,0-.7ZM17.41,9.89,16,9.47a.47.47,0,0,1-.2-.12.49.49,0,0,1-.12-.46.48.48,0,0,1,.46-.34.3.3,0,0,1,.13,0h0l1.79.5h0l.72.22-.35.34a1,1,0,0,1-1,.26ZM22,6a.49.49,0,0,1-.23.28.5.5,0,0,1-.36,0h0l-1.81-.51h0l-.69-.22.34-.34a1.07,1.07,0,0,1,1-.25l1.4.41A.48.48,0,0,1,22,6Z"/><path class="cls-1" d="M17.11,2.59a1,1,0,0,0,.72-.3,1,1,0,0,0,0-1.43,1,1,0,1,0-.72,1.73Zm-.34-1.35a.47.47,0,0,1,.34-.14.45.45,0,0,1,.34.14.48.48,0,0,1,0,.68.5.5,0,0,1-.68,0,.5.5,0,0,1,0-.68Z"/><path class="cls-1" d="M18.05,13.05a1,1,0,0,0,0,1.44,1,1,0,0,0,1.44,0,1,1,0,0,0,0-1.44A1,1,0,0,0,18.05,13.05Zm1.06,1.06a.5.5,0,0,1-.68,0,.48.48,0,0,1,.34-.82.51.51,0,0,1,.34.14.5.5,0,0,1,0,.68Z"/><path class="cls-1" d="M4.61,16.62a.57.57,0,0,1-.18,0A.46.46,0,0,1,4.2,16l.57-1.32a.44.44,0,0,1,.59-.23.45.45,0,0,1,.23.59L5,16.35a.44.44,0,0,1-.41.27Z"/><path class="cls-1" d="M5.81,13.83a.47.47,0,0,1-.17,0,.45.45,0,0,1-.24-.59l.17-.4a.45.45,0,1,1,.83.35l-.18.4a.43.43,0,0,1-.41.27Z"/></svg>